<svg width="45" height="54" viewBox="0 0 45 54" fill="none" xmlns="http://www.w3.org/2000/svg">
<path d="M0 40.8684C3.39509 25.8575 10.6494 11.991 21.0469 0.63756C21.2317 0.436591 21.4563 0.276157 21.7065 0.166411C21.9566 0.0566661 22.2268 0 22.5 0C22.7732 0 23.0434 0.0566661 23.2935 0.166411C23.5437 0.276157 23.7683 0.436591 23.9531 0.63756C34.3505 11.991 41.6048 25.8576 45 40.8684C39.6475 41.9941 34.2176 42.7152 28.7566 43.0254L23.6028 53.3197C23.5002 53.5242 23.3428 53.6961 23.148 53.8162C22.9533 53.9364 22.7289 54 22.5 54C22.2711 54 22.0467 53.9364 21.852 53.8162C21.6572 53.6961 21.4998 53.5242 21.3972 53.3197L16.2434 43.0229C10.7823 42.7137 5.35238 41.9951 0 40.8684ZM22.5 33.3399C24.4629 33.3399 26.3455 32.5607 27.7335 31.1738C29.1215 29.7869 29.9013 27.9059 29.9013 25.9445C29.9013 23.9831 29.1215 22.1021 27.7335 20.7152C26.3455 19.3283 24.4629 18.5491 22.5 18.5491C20.537 18.5491 18.6545 19.3283 17.2665 20.7152C15.8785 22.1021 15.0987 23.9831 15.0987 25.9445C15.0987 27.9059 15.8785 29.7869 17.2665 31.1738C18.6545 32.5607 20.537 33.3399 22.5 33.3399Z" fill="#EFECF6"/>
</svg>
